<?xml version="1.0" encoding="utf-8"?>
<!-- Generator: Adobe Illustrator 27.4.1, SVG Export Plug-In . SVG Version: 6.00 Build 0)  -->
<svg version="1.1" id="Layer_1" xmlns="http://www.w3.org/2000/svg" xmlns:xlink="http://www.w3.org/1999/xlink" x="0px" y="0px"
	 viewBox="0 0 192 192" style="enable-background:new 0 0 192 192;" xml:space="preserve">
<style type="text/css">
	.st0{fill:#FF0000;}
	.st1{fill:#FFFFFF;}
</style>
<rect x="0" class="st0" width="192" height="192"/>
<path class="st1" d="M161.7,63.08c-1.58-5.94-6.22-10.61-12.12-12.2C138.89,48,96.02,48,96.02,48s-42.87,0-53.56,2.88
	c-5.9,1.59-10.54,6.26-12.12,12.2c-2.86,10.76-2.86,33.21-2.86,33.21s0,22.45,2.86,33.21c1.58,5.94,6.22,10.61,12.12,12.2
	c10.69,2.88,53.56,2.88,53.56,2.88s42.87,0,53.56-2.88c5.9-1.59,10.54-6.26,12.12-12.2c2.86-10.76,2.86-33.21,2.86-33.21
	S164.57,73.84,161.7,63.08z M82,116.68V75.91l35.83,20.39L82,116.68z"/>
</svg>
